<svg width="25" height="25" viewBox="0 0 25 25" fill="none" xmlns="http://www.w3.org/2000/svg">
<path d="M22.2411 5.87953C22.2744 5.31903 22.0749 4.76328 21.6901 4.35478C21.3102 3.95103 20.771 3.71828 20.2153 3.71828H18.4459C18.453 3.40003 18.4578 3.07228 18.4578 2.73503H7.0459C7.0459 3.07228 7.05065 3.40003 7.05778 3.71828H5.27653C4.72078 3.71828 4.18165 3.95103 3.80165 4.35478C3.4169 4.76091 3.2174 5.31666 3.25065 5.87953C3.5689 11.1853 6.30728 14.515 10.6488 15.009L9.80802 17.935C8.80815 17.935 7.99827 18.7449 7.99827 19.7448V21.735H17.5078V19.7448C17.5078 18.7449 16.6979 17.935 15.698 17.935L14.8573 15.009C19.1893 14.5103 21.9253 11.1829 22.2411 5.87953ZM5.14828 5.76553C5.1459 5.71328 5.16728 5.67766 5.18628 5.65866C5.2219 5.62066 5.26465 5.62066 5.27653 5.62066H7.14803C7.43065 9.35653 8.25478 11.475 9.05515 12.672C6.00802 11.3943 5.28128 7.98141 5.14828 5.76553ZM16.4485 12.6649C17.2489 11.4655 18.0707 9.34941 18.3533 5.61828H20.2177C20.2319 5.61828 20.2723 5.61828 20.3079 5.65628C20.3269 5.67528 20.3483 5.71091 20.3459 5.76316C20.2105 7.97903 19.4862 11.3824 16.4485 12.6649Z" fill="#8E8E8E"/>
</svg>
