<svg width="25" height="25" viewBox="0 0 25 25" fill="none" xmlns="http://www.w3.org/2000/svg">
<path d="M20.6287 7.05511L14.9816 3.02511C13.4424 1.92511 11.0797 1.98511 9.59928 3.15511L4.68752 7.06511C3.70713 7.84511 2.93262 9.44511 2.93262 10.7051V17.6051C2.93262 20.1551 4.96203 22.2351 7.46203 22.2351H18.0307C20.5307 22.2351 22.5601 20.1651 22.5601 17.6151V10.8351C22.5601 9.48511 21.7071 7.82511 20.6287 7.05511ZM13.4816 18.2351C13.4816 18.6451 13.1483 18.9851 12.7463 18.9851C12.3444 18.9851 12.011 18.6451 12.011 18.2351V15.2351C12.011 14.8251 12.3444 14.4851 12.7463 14.4851C13.1483 14.4851 13.4816 14.8251 13.4816 15.2351V18.2351Z" fill="#8E8E8E"/>
</svg>
