<svg width="23" height="23" viewBox="0 0 23 23" fill="none" xmlns="http://www.w3.org/2000/svg">
<g clip-path="url(#clip0_1_1010)">
<path d="M19.0798 20.4018H4.41309V18.5684C4.41309 17.3529 4.89597 16.1871 5.75551 15.3275C6.61506 14.468 7.78084 13.9851 8.99642 13.9851H14.4964C15.712 13.9851 16.8778 14.468 17.7373 15.3275C18.5969 16.1871 19.0798 17.3529 19.0798 18.5684V20.4018ZM11.7464 12.1518C11.0241 12.1518 10.309 12.0095 9.64166 11.7331C8.97437 11.4567 8.36805 11.0516 7.85733 10.5409C7.34661 10.0301 6.94148 9.42383 6.66508 8.75654C6.38868 8.08925 6.24642 7.37405 6.24642 6.65178C6.24642 5.92951 6.38868 5.21431 6.66508 4.54702C6.94148 3.87973 7.34661 3.27341 7.85733 2.76269C8.36805 2.25197 8.97437 1.84684 9.64166 1.57044C10.309 1.29404 11.0241 1.15178 11.7464 1.15178C13.2051 1.15178 14.6041 1.73124 15.6355 2.76269C16.667 3.79414 17.2464 5.19309 17.2464 6.65178C17.2464 8.11047 16.667 9.50942 15.6355 10.5409C14.6041 11.5723 13.2051 12.1518 11.7464 12.1518Z" fill="white"/>
</g>
<defs>
<clipPath id="clip0_1_1010">
<rect width="22" height="22" fill="white" transform="translate(0.746094 0.235107)"/>
</clipPath>
</defs>
</svg>
