<svg width="23" height="23" viewBox="0 0 23 23" fill="none" xmlns="http://www.w3.org/2000/svg">
<g clip-path="url(#clip0_1_991)">
<path d="M20.168 14.7543V17.7234H18.8789V14.2381C16.9086 13.5747 14.3973 13.2117 11.7461 13.2117C8.905 13.2117 6.22439 13.6284 4.1982 14.3851C1.97208 15.2164 0.746094 16.402 0.746094 17.7234C0.746094 19.0448 1.97208 20.2304 4.1982 21.0617C6.22439 21.8184 8.905 22.2351 11.7461 22.2351C14.5872 22.2351 17.2678 21.8184 19.294 21.0617C21.5201 20.2304 22.7461 19.0448 22.7461 17.7234C22.7461 16.5868 21.8383 15.5509 20.168 14.7543ZM16.7305 18.5828C16.2558 18.5828 15.8711 18.198 15.8711 17.7234C15.8711 17.2488 16.2558 16.864 16.7305 16.864C17.2051 16.864 17.5898 17.2488 17.5898 17.7234C17.5898 18.198 17.2051 18.5828 16.7305 18.5828Z" fill="#8E8E8E"/>
<path d="M18.8984 0.235107L12.7754 4.31714L18.8788 8.38606V14.2381C19.0199 14.2856 19.8962 14.6248 20.1678 14.7543V8.39917V7.75464V0.235107H18.8984Z" fill="#8E8E8E"/>
</g>
<defs>
<clipPath id="clip0_1_991">
<rect width="22" height="22" fill="white" transform="translate(0.746094 0.235107)"/>
</clipPath>
</defs>
</svg>
