<svg width="18" height="19" viewBox="0 0 18 19" fill="none" xmlns="http://www.w3.org/2000/svg">
<path d="M16.4999 8.72752V10.2725C16.4999 10.685 16.1699 11.0225 15.7499 11.0375H14.2799C13.4699 11.0375 12.7274 10.445 12.6599 9.63502C12.6149 9.16252 12.7949 8.72002 13.1099 8.41252C13.3874 8.12752 13.7699 7.96252 14.1899 7.96252H15.7499C16.1699 7.97752 16.4999 8.31502 16.4999 8.72752Z" fill="#626262"/>
<path d="M15.3525 12.1625H14.28C12.855 12.1625 11.655 11.09 11.535 9.725C11.4675 8.945 11.7525 8.165 12.3225 7.61C12.8025 7.115 13.47 6.8375 14.19 6.8375H15.3525C15.57 6.8375 15.75 6.6575 15.7275 6.44C15.5625 4.6175 14.355 3.3725 12.5625 3.1625C12.3825 3.1325 12.195 3.125 12 3.125H5.25C5.04 3.125 4.8375 3.14 4.6425 3.17C2.73 3.41 1.5 4.835 1.5 6.875V12.125C1.5 14.195 3.18 15.875 5.25 15.875H12C14.1 15.875 15.5475 14.5625 15.7275 12.56C15.75 12.3425 15.57 12.1625 15.3525 12.1625ZM9.75 7.8125H5.25C4.9425 7.8125 4.6875 7.5575 4.6875 7.25C4.6875 6.9425 4.9425 6.6875 5.25 6.6875H9.75C10.0575 6.6875 10.3125 6.9425 10.3125 7.25C10.3125 7.5575 10.0575 7.8125 9.75 7.8125Z" fill="#626262"/>
</svg>
