<svg width="21" height="21" viewBox="0 0 21 21" fill="none" xmlns="http://www.w3.org/2000/svg">
<path d="M14.4584 3.2572V1.9572C14.4584 1.61553 14.1751 1.3322 13.8334 1.3322C13.4918 1.3322 13.2084 1.61553 13.2084 1.9572V3.2072H7.79178V1.9572C7.79178 1.61553 7.50844 1.3322 7.16678 1.3322C6.82511 1.3322 6.54178 1.61553 6.54178 1.9572V3.2572C4.29178 3.46553 3.20011 4.8072 3.03344 6.79887C3.01678 7.04053 3.21678 7.24053 3.45011 7.24053H17.5501C17.7918 7.24053 17.9918 7.0322 17.9668 6.79887C17.8001 4.8072 16.7084 3.46553 14.4584 3.2572Z" fill="#8E8E8E"/>
<path d="M17.1667 8.49049H3.83333C3.375 8.49049 3 8.86549 3 9.32383V14.4572C3 16.9572 4.25 18.6238 7.16667 18.6238H13.8333C16.75 18.6238 18 16.9572 18 14.4572V9.32383C18 8.86549 17.625 8.49049 17.1667 8.49049ZM8.175 15.4655C8.13333 15.4988 8.09167 15.5405 8.05 15.5655C8 15.5988 7.95 15.6238 7.9 15.6405C7.85 15.6655 7.8 15.6822 7.75 15.6905C7.69167 15.6988 7.64167 15.7072 7.58333 15.7072C7.475 15.7072 7.36667 15.6822 7.26667 15.6405C7.15833 15.5988 7.075 15.5405 6.99167 15.4655C6.84167 15.3072 6.75 15.0905 6.75 14.8738C6.75 14.6572 6.84167 14.4405 6.99167 14.2822C7.075 14.2072 7.15833 14.1488 7.26667 14.1072C7.41667 14.0405 7.58333 14.0238 7.75 14.0572C7.8 14.0655 7.85 14.0822 7.9 14.1072C7.95 14.1238 8 14.1488 8.05 14.1822C8.09167 14.2155 8.13333 14.2488 8.175 14.2822C8.325 14.4405 8.41667 14.6572 8.41667 14.8738C8.41667 15.0905 8.325 15.3072 8.175 15.4655ZM8.175 12.5488C8.01667 12.6988 7.8 12.7905 7.58333 12.7905C7.36667 12.7905 7.15 12.6988 6.99167 12.5488C6.84167 12.3905 6.75 12.1738 6.75 11.9572C6.75 11.7405 6.84167 11.5238 6.99167 11.3655C7.225 11.1322 7.59167 11.0572 7.9 11.1905C8.00833 11.2322 8.1 11.2905 8.175 11.3655C8.325 11.5238 8.41667 11.7405 8.41667 11.9572C8.41667 12.1738 8.325 12.3905 8.175 12.5488ZM11.0917 15.4655C10.9333 15.6155 10.7167 15.7072 10.5 15.7072C10.2833 15.7072 10.0667 15.6155 9.90833 15.4655C9.75833 15.3072 9.66667 15.0905 9.66667 14.8738C9.66667 14.6572 9.75833 14.4405 9.90833 14.2822C10.2167 13.9738 10.7833 13.9738 11.0917 14.2822C11.2417 14.4405 11.3333 14.6572 11.3333 14.8738C11.3333 15.0905 11.2417 15.3072 11.0917 15.4655ZM11.0917 12.5488C11.05 12.5822 11.0083 12.6155 10.9667 12.6488C10.9167 12.6822 10.8667 12.7072 10.8167 12.7238C10.7667 12.7488 10.7167 12.7655 10.6667 12.7738C10.6083 12.7822 10.5583 12.7905 10.5 12.7905C10.2833 12.7905 10.0667 12.6988 9.90833 12.5488C9.75833 12.3905 9.66667 12.1738 9.66667 11.9572C9.66667 11.7405 9.75833 11.5238 9.90833 11.3655C9.98333 11.2905 10.075 11.2322 10.1833 11.1905C10.4917 11.0572 10.8583 11.1322 11.0917 11.3655C11.2417 11.5238 11.3333 11.7405 11.3333 11.9572C11.3333 12.1738 11.2417 12.3905 11.0917 12.5488ZM14.0083 15.4655C13.85 15.6155 13.6333 15.7072 13.4167 15.7072C13.2 15.7072 12.9833 15.6155 12.825 15.4655C12.675 15.3072 12.5833 15.0905 12.5833 14.8738C12.5833 14.6572 12.675 14.4405 12.825 14.2822C13.1333 13.9738 13.7 13.9738 14.0083 14.2822C14.1583 14.4405 14.25 14.6572 14.25 14.8738C14.25 15.0905 14.1583 15.3072 14.0083 15.4655ZM14.0083 12.5488C13.9667 12.5822 13.925 12.6155 13.8833 12.6488C13.8333 12.6822 13.7833 12.7072 13.7333 12.7238C13.6833 12.7488 13.6333 12.7655 13.5833 12.7738C13.525 12.7822 13.4667 12.7905 13.4167 12.7905C13.2 12.7905 12.9833 12.6988 12.825 12.5488C12.675 12.3905 12.5833 12.1738 12.5833 11.9572C12.5833 11.7405 12.675 11.5238 12.825 11.3655C12.9083 11.2905 12.9917 11.2322 13.1 11.1905C13.25 11.1238 13.4167 11.1072 13.5833 11.1405C13.6333 11.1488 13.6833 11.1655 13.7333 11.1905C13.7833 11.2072 13.8333 11.2322 13.8833 11.2655C13.925 11.2988 13.9667 11.3322 14.0083 11.3655C14.1583 11.5238 14.25 11.7405 14.25 11.9572C14.25 12.1738 14.1583 12.3905 14.0083 12.5488Z" fill="#8E8E8E"/>
</svg>
