<svg width="20" height="21" viewBox="0 0 20 21" fill="none" xmlns="http://www.w3.org/2000/svg">
<path d="M10.0001 1.9572C5.40841 1.9572 1.66675 5.69887 1.66675 10.2905C1.66675 14.8822 5.40841 18.6239 10.0001 18.6239C14.5917 18.6239 18.3334 14.8822 18.3334 10.2905C18.3334 5.69887 14.5917 1.9572 10.0001 1.9572ZM13.6251 13.2655C13.5084 13.4655 13.3001 13.5739 13.0834 13.5739C12.9751 13.5739 12.8667 13.5489 12.7667 13.4822L10.1834 11.9405C9.54175 11.5572 9.06675 10.7155 9.06675 9.97387V6.5572C9.06675 6.21553 9.35008 5.9322 9.69175 5.9322C10.0334 5.9322 10.3167 6.21553 10.3167 6.5572V9.97387C10.3167 10.2739 10.5667 10.7155 10.8251 10.8655L13.4084 12.4072C13.7084 12.5822 13.8084 12.9655 13.6251 13.2655Z" fill="#8E8E8E"/>
</svg>
